<?xml version="1.0" encoding="UTF-8"?>
<svg id="_레이어_2" data-name="레이어_2" xmlns="http://www.w3.org/2000/svg" viewBox="0 0 631.96 132.16">
  <defs>
    <style>
      .cls-1 {
        fill: #036;
      }
    </style>
  </defs>
  <g id="_레이어_1-2" data-name="레이어_1">
    <path class="cls-1" d="M617.07,35.95c-6.33-3.52-11.77-7.62-17.9-9.74-16.85-5.83-35.4,4.94-40.23,23.06-3.11,11.66-2.26,23.28,3.6,33.95,6.18,11.24,15.71,17.43,29.01,16.55,7.06-.47,9.8-3.42,9.86-10.4,0-1.17-.13-2.35.03-3.5.73-5.06-1.27-7.92-6.18-9.76-7.11-2.67-10.44-15.07-5.8-21.16,1.33-1.74,4.07-3.27,6.23-3.36,9.48-.37,18.99-.31,28.48-.12,4.39.09,6.94,2.8,7.53,7.22.22,1.64.43,3.4.06,4.97-2.43,10.54-1.12,21.22-1.09,31.82.02,7.13-2.66,12.5-7.67,17.13-16.46,15.17-42.19,17.58-62.75,5.53-20.82-12.21-29.21-31.21-29.9-54.68-.81-27.76,11.9-47.34,36.62-58.08,20.98-9.12,41.75-6.86,59.93,8.38,5.09,4.27,5.01,5.16.83,10.07-3.65,4.28-7.42,8.45-10.65,12.12Z"/>
    <path class="cls-1" d="M86.97,18.97c-4.97,5.93-9.62,11.48-14.32,17.09-3.19-2.25-5.88-4.48-8.87-6.19-9.02-5.16-18.47-6.43-28.18-2.03-5.33,2.42-7.54,6.01-7.17,10.84.33,4.27,3.25,7.48,9.03,8.58,8.98,1.71,18.06,2.89,27.09,4.32,1.47.23,2.93.59,4.38.95,22.28,5.6,31.3,25.43,20.8,45.99-7.91,15.5-21.36,23.68-37.95,26.08-18.63,2.69-35.22-2.84-49.15-15.75-.73-.68-1.42-1.4-2.09-2.14-.21-.23-.29-.59-.53-1.11,4.82-5.7,9.7-11.48,14.91-17.63,2.87,2.12,5.74,4.28,8.66,6.38,8.7,6.26,18.32,7.45,28.5,4.85,2.06-.52,4.04-1.58,5.87-2.69,4.28-2.62,5.91-6.64,5.33-11.52-.55-4.56-3.57-7.13-7.73-8.13-7.58-1.83-15.26-3.25-22.86-5.01-3.39-.79-6.75-1.8-10-3.02C-3.71,58.92-3.45,32.39,9.36,17.19,21.53,2.75,37.47-.94,55.3,1.23c12.57,1.54,22.92,7.42,31.66,17.73Z"/>
    <path class="cls-1" d="M462.67,103.28c-7.94-.43-14.89-.82-22.1-1.21V16.65c5.01,0,9.84-.44,14.53.2,2.1.29,4.2,2.46,5.8,4.22,11.54,12.7,22.94,25.52,34.42,38.27,1.06,1.18,2.33,2.18,3.98,3.7V16.99h22.83c.1,1.87.25,3.49.25,5.11,0,27.99-.02,55.98-.06,83.97,0,2.5-.08,5-.23,7.49-.68,11.99-8.05,18.83-20.08,18.59-1.64-.03-3.27-.33-4.87-.51-1.44-3.17-.25-4.65,2.59-5.8,3.07-1.23,5.98-2.91,8.86-4.56,3.38-1.94,4.62-4.87,2.74-8.44-1.76-3.36-3.47-6.91-5.97-9.69-13.24-14.75-26.71-29.28-40.12-43.88-.52-.57-1.17-1.02-2.59-2.23v46.24Z"/>
    <path class="cls-1" d="M145.66,16.63c5.4,0,10.22-.23,15,.14,1.52.12,3.19,1.58,4.33,2.84,12.26,13.6,24.43,27.28,36.63,40.93.52.58,1.03,1.17,2.24,2.55V17.07h21.36c.13,1.39.34,2.67.34,3.95,0,29.14.03,58.28-.06,87.42-.04,11.72-6.71,18.94-18.41,20.14-1.75.18-3.56-.21-5.27-.34-1.24-3.36.41-4.44,2.88-5.44,2.74-1.11,5.52-2.38,7.85-4.16,4.21-3.23,4.81-6.26,2.26-10.92-1.34-2.45-3.2-4.66-5.1-6.74-13.24-14.51-26.54-28.96-39.84-43.42-.18-.2-.57-.21-1.55-.55v44.61c-7.87.63-15.08,1.21-22.66,1.82V16.63Z"/>
    <path class="cls-1" d="M290.53,125.21v-20.35c-7.19-.48-14.11-.08-20.61-1.53-19.12-4.28-30.91-17.93-34.15-38.29-3.32-20.87,5.31-39.8,23.12-49.53,13.76-7.52,28.02-7.67,42.15-.94,3.19,1.52,5.88,4.11,9.36,6.61-4.08,5.35-7.66,10.05-11.38,14.93-1.22-.68-2.23-1.16-3.17-1.77-8.12-5.34-16.77-6.86-25.47-2.05-8.78,4.86-12.41,13.13-12.7,22.9-.41,14.08,8.35,26.76,20.41,29.75,1.44.36,2.94.57,4.42.61,6.63.19,7.73-.91,7.75-7.57,0-1.98,0-3.96,0-6.09-6.12-2.27-8.8-6.52-7.93-12.87.67-4.85,3.24-7.72,8.07-7.95,6.31-.3,12.65-.09,18.98-.16,2.78-.03,3.97,1.46,3.94,4.01-.2,15.64.13,31.31-.89,46.9-.73,11.19-11.32,21.64-21.91,23.4Z"/>
    <path class="cls-1" d="M387.15,22.12c-4.1,5.23-7.46,9.51-10.3,13.14-6.34-2.13-11.96-4.86-17.85-5.7-4.12-.59-8.83.87-12.86,2.45-3.34,1.31-5.24,4.66-4.66,8.6.58,3.87,3.45,5.66,6.92,6.22,6.89,1.1,13.83,1.88,20.74,2.81,1.48.2,2.95.47,4.42.73,23.95,4.23,23.88,28.21,13.4,40.15-7.51,8.57-17.18,13.05-28.32,14.12-11.58,1.12-22.53-1.11-32.29-7.85-1.19-.82-2.27-1.81-3.77-3.02,3.87-5.18,7.51-10.05,11.44-15.31,1.78,1.17,3.39,2.25,5.02,3.3,6.84,4.43,14.39,4.97,22.09,3.48,2.3-.44,4.72-1.84,6.43-3.49,4.87-4.7,3.35-10.33-3.28-11.9-7.26-1.72-14.74-2.57-21.98-4.36-14.71-3.62-21.76-11.37-22.29-23.77-.57-13.42,7.18-24.92,20.31-29.43,12.89-4.43,25.6-3.53,37.7,2.78,3.13,1.63,5.7,4.35,9.14,7.05Z"/>
    <path class="cls-1" d="M104.61,16.8h23.54v89.33c-7.63,1.28-15.41,2.59-23.54,3.95V16.8Z"/>
    <path class="cls-1" d="M424.18,101.61h-22.02V17.02h22.02v84.59Z"/>
  </g>
</svg>